<svg width="15" height="16" viewBox="0 0 15 16" fill="none" xmlns="http://www.w3.org/2000/svg">
<path fill-rule="evenodd" clip-rule="evenodd" d="M10 2H3C2.44772 2 2 2.44772 2 3V13C2 13.5523 2.44772 14 3 14H10C10.5523 14 11 13.5523 11 13C11 12.4477 11.4477 12 12 12C12.5523 12 13 12.4477 13 13C13 14.6569 11.6569 16 10 16H3C1.34315 16 0 14.6569 0 13V3C0 1.34315 1.34315 0 3 0H10C11.6569 0 13 1.34315 13 3C13 3.55228 12.5523 4 12 4C11.4477 4 11 3.55228 11 3C11 2.44772 10.5523 2 10 2ZM8.70711 5.70711C9.09763 5.31658 9.09763 4.68342 8.70711 4.29289C8.31658 3.90237 7.68342 3.90237 7.29289 4.29289L4.29289 7.29289L3.58579 8L4.29289 8.70711L7.29289 11.7071C7.68342 12.0976 8.31658 12.0976 8.70711 11.7071C9.09763 11.3166 9.09763 10.6834 8.70711 10.2929L7.41421 9H14C14.5523 9 15 8.55228 15 8C15 7.44772 14.5523 7 14 7H7.41421L8.70711 5.70711Z" fill="#F15C0B"/>
</svg>
