<svg width="15" height="16" viewBox="0 0 15 16" fill="none" xmlns="http://www.w3.org/2000/svg">
<path fill-rule="evenodd" clip-rule="evenodd" d="M12 7C12 9.76142 9.76142 12 7 12C4.23858 12 2 9.76142 2 7C2 4.23858 4.23858 2 7 2C9.76142 2 12 4.23858 12 7ZM10.8102 12.8731C9.71377 13.5859 8.40524 14 7 14C3.13401 14 0 10.866 0 7C0 3.13401 3.13401 0 7 0C10.866 0 14 3.13401 14 7C14 8.73973 13.3653 10.3312 12.3149 11.5556L14.7526 14.3415C15.1163 14.7571 15.0741 15.3889 14.6585 15.7526C14.2429 16.1163 13.6111 16.0741 13.2474 15.6585L10.8102 12.8731Z" fill="#F15C0B"/>
</svg>
